<?xml version="1.0" standalone="no"?>
<!DOCTYPE svg PUBLIC "-//W3C//DTD SVG 20010904//EN"
 "http://www.w3.org/TR/2001/REC-SVG-20010904/DTD/svg10.dtd">
<svg version="1.0" xmlns="http://www.w3.org/2000/svg"
 width="1000.000000pt" height="1000.000000pt" viewBox="0 0 1000.000000 1000.000000"
 preserveAspectRatio="xMidYMid meet">
<metadata>
Created by potrace 1.14, written by Peter Selinger 2001-2017
</metadata>
<g transform="translate(0.000000,1000.000000) scale(0.100000,-0.100000)"
fill="#000000" stroke="none">
<path d="M3125 9662 c-2 -2 -107 -3 -234 -2 -235 1 -239 0 -231 -35 2 -11 2
-104 0 -120 -1 -5 -1 -35 -1 -65 0 -30 0 -149 0 -265 0 -115 0 -217 0 -225 2
-56 -1 -145 -4 -148 -2 -3 0 -13 5 -23 6 -10 7 -20 3 -22 -5 -3 -6 -60 -3
-127 3 -67 2 -129 -1 -138 -4 -9 -3 -25 0 -35 4 -9 4 -47 1 -82 -3 -36 -2 -72
2 -80 5 -7 5 -16 1 -18 -5 -3 -6 -60 -3 -127 3 -67 2 -129 -1 -138 -4 -9 -3
-25 0 -35 4 -9 4 -47 1 -82 -3 -36 -2 -72 2 -80 5 -7 5 -16 1 -18 -5 -3 -6
-60 -3 -127 3 -67 2 -129 -1 -138 -4 -9 -3 -26 1 -37 4 -11 4 -32 0 -46 -4
-15 -4 -32 0 -39 5 -7 5 -23 0 -34 -4 -12 -4 -29 -1 -39 4 -9 4 -47 1 -82 -3
-36 -2 -72 2 -80 5 -7 5 -16 1 -18 -5 -3 -6 -60 -3 -127 3 -67 2 -129 -1 -138
-4 -9 -3 -25 0 -35 4 -9 4 -47 1 -82 -3 -36 -2 -72 2 -80 5 -7 5 -16 1 -18 -5
-3 -6 -60 -3 -127 3 -67 2 -129 -1 -138 -4 -9 -3 -25 0 -35 4 -9 4 -47 1 -82
-3 -36 -2 -72 2 -80 5 -7 5 -16 1 -18 -5 -3 -6 -60 -3 -127 3 -67 2 -129 -1
-138 -4 -9 -3 -25 0 -35 4 -9 4 -47 1 -82 -3 -36 -2 -72 2 -80 5 -7 5 -16 1
-18 -5 -3 -6 -60 -3 -127 3 -67 2 -129 -1 -138 -4 -9 -3 -25 0 -35 4 -9 4 -47
1 -82 -3 -36 -2 -72 2 -80 5 -7 4 -17 -2 -20 -6 -4 -8 -10 -6 -14 4 -6 7 -134
5 -261 0 -8 1 -52 2 -98 1 -46 0 -85 -2 -87 -2 -2 -2 -74 1 -160 3 -86 3 -158
0 -160 -3 -2 -3 -74 0 -160 3 -86 3 -158 0 -160 -3 -2 -3 -74 0 -160 3 -86 3
-158 0 -160 -3 -2 -3 -74 0 -160 3 -86 4 -158 2 -159 -1 -2 -4 -86 -5 -187 -3
-171 -8 -220 -24 -259 -3 -8 -7 -17 -8 -20 -32 -90 -121 -176 -207 -198 -24
-6 -80 -21 -126 -32 -98 -24 -202 -59 -219 -73 -7 -5 -13 -6 -13 -1 0 5 -4 5
-8 -1 -4 -5 -27 -20 -52 -32 -62 -31 -156 -88 -170 -103 -3 -3 -23 -18 -45
-35 -51 -38 -192 -181 -213 -218 -9 -15 -20 -27 -24 -27 -4 0 -8 -4 -8 -9 0
-6 -14 -30 -31 -55 -35 -54 -119 -229 -126 -265 -2 -13 -6 -29 -9 -33 -3 -5
-15 -51 -26 -101 -37 -167 -30 -449 14 -587 21 -66 31 -95 47 -135 19 -50 100
-208 109 -215 4 -3 19 -23 33 -45 63 -97 203 -235 313 -307 22 -15 46 -31 51
-36 18 -14 179 -91 225 -108 85 -30 170 -50 265 -64 60 -8 292 -6 330 3 11 2
40 8 65 12 25 4 50 10 55 13 6 4 15 7 20 7 6 1 30 7 55 15 25 7 47 14 50 15 6
2 62 26 125 55 61 29 197 118 247 162 20 18 45 40 55 48 10 9 27 27 38 41 11
14 32 33 46 42 29 19 119 48 119 39 0 -4 24 -7 53 -8 77 -2 132 -33 235 -134
92 -89 214 -177 306 -219 59 -27 145 -62 166 -66 8 -2 58 -14 110 -26 81 -19
125 -22 295 -23 126 0 224 4 265 12 36 7 72 14 80 16 8 2 22 5 30 8 8 3 46 16
83 28 66 21 159 67 208 102 13 10 53 39 89 64 134 96 284 269 339 388 29 64
67 200 76 276 4 25 8 59 11 75 10 66 14 117 20 285 3 96 5 182 5 190 -2 49 0
145 4 148 2 3 0 13 -5 23 -7 12 -7 20 0 24 6 4 8 10 6 14 -4 6 -7 183 -5 261
0 8 0 197 -1 419 0 222 1 405 2 407 2 1 1 64 -2 139 -3 75 -2 142 1 147 4 6 4
21 0 35 -4 14 -4 51 -1 84 3 32 2 66 -2 73 -5 8 -4 17 2 21 6 4 8 10 6 14 -4
6 -7 159 -5 261 0 8 -1 52 -2 98 -1 45 0 84 2 87 2 2 2 218 -1 480 -3 262 -3
478 0 480 3 2 3 65 0 140 -3 75 -2 142 1 147 4 6 4 21 0 35 -4 14 -4 51 -1 84
3 32 2 66 -2 73 -5 8 -4 17 2 21 6 4 8 10 6 14 -4 6 -7 159 -5 261 0 8 -1 52
-2 98 -1 45 0 84 2 87 2 2 2 74 -1 160 -3 86 -3 158 -1 160 7 8 -4 418 -14
495 -3 19 -8 63 -11 97 -5 52 -34 198 -48 238 -1 6 -7 24 -11 40 -47 172 -334
469 -576 597 -87 46 -214 90 -302 104 -100 16 -135 19 -267 19 -172 0 -231 -7
-350 -39 -103 -27 -290 -110 -290 -127 0 -5 -6 -9 -14 -9 -23 0 -148 -101
-233 -189 l-83 -84 0 1126 0 1126 -205 3 c-112 2 -213 1 -225 -2 -11 -3 -66
-3 -121 0 -55 3 -102 4 -104 2z m1354 -2932 c91 -22 154 -61 233 -143 43 -43
76 -83 73 -87 -3 -5 -1 -11 5 -15 11 -7 40 -101 45 -148 2 -18 4 -34 5 -37 1
-3 2 -8 2 -11 -2 -17 -2 -100 -1 -145 1 -28 -1 -56 -5 -62 -3 -6 -2 -13 4 -17
6 -4 7 -12 1 -24 -5 -9 -6 -23 -1 -30 4 -8 5 -25 1 -40 -7 -28 -6 -90 2 -98 3
-2 2 -17 -3 -32 -4 -16 -4 -34 0 -41 5 -7 4 -24 -1 -37 -5 -15 -5 -23 2 -23 6
0 6 -6 0 -18 -5 -10 -6 -24 -1 -31 4 -8 5 -25 1 -40 -3 -14 -5 -39 -4 -56 6
-73 5 -143 -1 -153 -3 -6 -2 -13 4 -17 6 -4 7 -12 1 -24 -5 -9 -6 -23 -1 -30
4 -8 5 -25 1 -40 -7 -28 -6 -90 2 -98 3 -2 2 -17 -3 -32 -4 -16 -4 -34 0 -41
5 -7 4 -24 -1 -37 -5 -15 -5 -23 2 -23 6 0 6 -6 0 -18 -5 -10 -6 -24 -1 -31 4
-8 5 -25 1 -40 -3 -14 -5 -39 -4 -56 6 -61 5 -134 -2 -144 -3 -6 -2 -11 4 -11
6 0 7 -11 2 -27 -7 -30 -6 -91 3 -100 2 -3 1 -16 -4 -29 -6 -16 -6 -24 1 -24
6 0 6 -6 0 -18 -5 -10 -6 -24 -1 -31 4 -8 5 -25 1 -40 -7 -28 -6 -90 3 -98 2
-3 1 -16 -4 -29 -6 -16 -6 -24 1 -24 6 0 6 -6 0 -18 -6 -10 -6 -24 -1 -32 5
-8 6 -18 4 -22 -5 -7 -6 -45 -4 -118 1 -13 1 -101 0 -165 0 -82 1 -119 4 -123
2 -2 0 -17 -4 -33 -5 -16 -5 -29 0 -29 5 0 5 -12 1 -27 -7 -30 -6 -91 3 -100
2 -3 1 -16 -4 -29 -6 -16 -6 -24 1 -24 6 0 6 -6 0 -18 -5 -10 -6 -24 -1 -31 4
-8 5 -25 1 -40 -7 -28 -6 -90 3 -98 2 -3 1 -16 -4 -29 -6 -16 -6 -24 1 -24 6
0 6 -6 0 -18 -6 -10 -6 -24 -1 -32 5 -8 6 -18 4 -22 -5 -7 -6 -45 -4 -118 1
-13 1 -101 0 -165 0 -82 1 -119 4 -123 2 -2 0 -17 -4 -33 -5 -16 -5 -29 0 -29
5 0 5 -12 1 -27 -7 -30 -6 -91 3 -100 2 -3 1 -16 -4 -29 -6 -16 -6 -24 1 -24
6 0 6 -6 0 -18 -5 -10 -6 -24 -1 -31 4 -8 5 -25 1 -40 -7 -28 -6 -90 3 -98 2
-3 1 -16 -4 -29 -6 -16 -6 -24 1 -24 6 0 6 -6 0 -18 -6 -10 -6 -24 -1 -32 5
-8 6 -18 4 -22 -5 -7 -6 -45 -4 -118 1 -13 1 -101 0 -165 0 -82 1 -119 4 -123
2 -2 0 -17 -4 -33 -5 -17 -5 -31 1 -35 5 -3 7 -10 4 -15 -4 -5 -8 -37 -10 -72
-5 -80 -8 -90 -39 -160 -33 -74 -133 -173 -224 -219 -36 -18 -73 -34 -81 -35
-9 -1 -32 -5 -51 -9 -44 -8 -165 -8 -205 0 -150 32 -283 127 -415 296 l-35 45
-3 2328 -2 2329 32 41 c90 116 191 203 288 250 55 26 140 50 140 39 0 -3 4 -2
9 4 13 12 174 8 230 -6z"/>
<path d="M8350 7839 c-125 -24 -265 -77 -355 -132 -98 -60 -241 -187 -305
-270 -12 -15 -26 -24 -32 -21 -6 4 -6 10 1 17 6 6 7 16 1 28 -6 10 -7 20 -3
22 5 3 6 44 3 92 -3 48 -3 89 -1 91 3 2 4 30 2 62 -3 66 -18 84 -60 72 -16 -4
-34 -4 -41 0 -7 5 -23 5 -35 0 -12 -5 -27 -5 -35 0 -7 4 -24 5 -38 1 -14 -4
-46 -4 -71 -1 -26 3 -58 3 -71 0 -14 -4 -37 -3 -52 1 -15 4 -30 4 -33 0 -2 -4
-24 -5 -49 -1 -24 4 -52 3 -60 -2 -10 -6 -16 -5 -16 2 0 7 -6 8 -18 1 -10 -5
-24 -6 -31 -1 -8 4 -25 5 -40 1 -28 -7 -90 -6 -98 3 -3 2 -16 1 -29 -4 -16 -6
-24 -6 -24 1 0 6 -6 7 -16 1 -9 -5 -34 -6 -55 -2 -22 4 -41 4 -44 0 -2 -4 -17
-5 -32 -3 -16 2 -35 4 -43 4 -8 0 -41 -1 -72 -1 l-58 0 0 -3710 0 -3710 28 1
c15 0 87 0 160 -1 74 -1 135 0 137 2 2 2 92 1 200 -2 108 -3 198 -3 200 0 2 3
56 3 120 0 64 -3 119 -3 121 -1 2 2 35 3 73 2 53 -2 71 1 78 13 4 8 6 62 3
121 -3 59 -3 108 0 110 3 2 3 56 0 120 -3 64 -3 118 0 120 3 2 3 56 0 120 -3
64 -3 118 0 120 3 2 3 56 0 120 -3 64 -3 118 0 120 3 2 3 56 0 120 -3 64 -3
118 0 120 3 2 3 56 0 120 -3 64 -3 118 0 120 3 2 3 56 0 120 -3 64 -3 118 0
120 3 2 3 56 0 120 -3 64 -3 118 0 120 3 2 3 632 0 1400 -3 768 -3 1398 0
1400 3 2 3 56 0 120 -3 64 -3 118 0 120 3 2 3 56 0 120 -3 64 -3 118 0 120 3
2 3 56 0 120 -3 64 -3 118 0 120 3 2 3 56 0 120 -3 64 -3 118 0 120 3 2 3 56
0 120 -3 64 -3 119 -1 121 3 2 3 31 2 63 l-2 59 99 98 c54 55 105 104 113 109
181 130 330 157 565 102 31 -8 124 -56 160 -83 17 -13 33 -24 36 -24 7 0 17
48 11 54 -5 5 -5 121 0 254 1 39 -2 72 -6 72 -5 0 -5 4 -2 10 5 8 6 101 4 273
0 17 0 95 0 120 0 6 1 61 2 120 1 59 0 110 -2 112 -2 2 -2 49 1 105 3 56 2
104 -3 107 -16 10 -206 -2 -287 -18z"/>
</g>
</svg>
